<svg width="392" height="235" viewBox="0 0 392 235" fill="none" xmlns="http://www.w3.org/2000/svg">
<path d="M356.366 216.682H35.6342C35.0712 216.682 34.6138 216.223 34.6138 215.659V215.601C34.6138 215.037 35.0712 214.578 35.6342 214.578H356.366C356.929 214.578 357.386 215.037 357.386 215.601V215.659C357.386 216.223 356.929 216.682 356.366 216.682Z" fill="#42484C"/>
<path d="M139.581 211.629C139.581 211.629 116.908 202.852 118.398 196.601C119.054 193.852 122.679 195.943 122.972 193.946C123.476 190.468 109.073 190.127 109.882 185.685C110.656 181.35 120.673 189.363 121.342 186.226C121.764 184.299 105.812 183.183 105.812 178.706C105.812 174.229 117.354 179.493 119.782 178.377C122.21 177.249 98 167.344 100.897 161.727C103.267 157.156 118.996 169.576 121.799 168.683C124.603 167.79 112.075 157.333 108.615 148.414C105.038 139.202 108.815 135.008 114.984 142.61C121.154 150.212 131.171 164.571 131.922 160.552C132.661 156.522 126.245 140.906 132.262 142.516C142.854 145.359 142.384 164.112 144.648 178.988C144.895 180.562 149.809 162.644 153.762 168.483C156.624 172.702 163.697 213.603 163.697 213.603L139.581 211.629Z" fill="#02614E"/>
<path d="M109.753 214.661C102.621 208.845 90.6925 185.368 99.7008 185.368C108.967 185.368 116.603 192.97 116.603 192.97C116.603 192.97 109.823 179.246 116.603 177.413C124.004 175.416 144.156 197.564 144.156 197.564C144.156 197.564 133.447 182.877 144.812 186.578C155.099 189.927 172.107 210.913 174.981 214.661H109.753Z" fill="#5AB2AC"/>
<path d="M104.533 199.762C104.475 200.103 104.123 201.113 104.346 202.112C104.475 203.087 105.178 204.062 105.19 204.015C105.249 204.004 104.076 203.686 103.29 202.688C102.434 201.759 101.965 200.138 102.152 199.433C102.352 197.964 103.572 197.247 104.076 197.682C104.592 198.093 104.615 198.998 104.533 199.762Z" fill="#218B85"/>
<path d="M111.946 202.429C111.888 202.77 111.524 203.78 111.747 204.779C111.876 205.754 112.591 206.73 112.603 206.683C112.662 206.671 111.489 206.354 110.691 205.343C109.847 204.427 109.378 202.805 109.565 202.1C109.765 200.631 110.985 199.915 111.489 200.349C112.005 200.761 112.017 201.665 111.946 202.429Z" fill="#218B85"/>
<path d="M119.465 205.801C119.418 206.142 119.054 207.153 119.277 208.151C119.406 209.127 120.122 210.102 120.122 210.055C120.18 210.043 119.019 209.726 118.222 208.715C117.377 207.799 116.908 206.177 117.096 205.472C117.295 204.004 118.515 203.287 119.019 203.722C119.535 204.133 119.547 205.038 119.465 205.801Z" fill="#218B85"/>
<path d="M100.827 207.999C100.217 208.034 99.7242 206.824 100.393 205.625C100.639 205.002 101.882 204.074 103.02 203.863C104.17 203.569 105.214 203.992 105.167 203.957C105.19 203.921 104.123 204.227 103.478 204.885C102.762 205.484 102.469 206.436 102.316 206.718C101.953 207.329 101.448 207.975 100.827 207.999Z" fill="#218B85"/>
<path d="M108.533 210.736C107.923 210.772 107.43 209.561 108.099 208.363C108.345 207.74 109.589 206.812 110.726 206.612C111.876 206.307 112.908 206.73 112.873 206.694C112.896 206.659 111.829 206.976 111.184 207.623C110.468 208.234 110.175 209.174 110.023 209.456C109.659 210.067 109.155 210.725 108.533 210.736Z" fill="#218B85"/>
<path d="M97.3431 200.255C97.3783 200.455 97.3431 201.09 97.6481 201.618C97.8944 202.147 98.4691 202.57 98.4691 202.547C98.5043 202.535 97.7771 202.558 97.1554 202.135C96.5103 201.759 95.959 200.925 95.9356 200.502C95.7948 199.633 96.3578 198.998 96.7214 199.163C97.0851 199.304 97.2493 199.809 97.3431 200.255Z" fill="#218B85"/>
<path d="M95.0324 204.344C94.6453 204.286 94.4928 203.451 95.0676 202.793C95.3022 202.441 96.2054 202.018 96.956 202.041C97.7067 202.006 98.3049 202.406 98.2815 202.382C98.3049 202.359 97.5894 202.417 97.1085 202.735C96.5807 203.028 96.264 203.581 96.135 203.733C95.83 204.074 95.4195 204.415 95.0324 204.344Z" fill="#218B85"/>
<path d="M106.304 163.548C106.234 163.525 106.258 163.419 106.328 163.443C109.905 164.606 111.97 168.166 113.882 171.174C122.104 184.087 128.485 199.727 131.91 214.661H131.019C127.582 199.409 121.482 183.888 113.248 170.963C111.465 168.154 109.565 164.782 106.304 163.548Z" fill="#218B85"/>
<path d="M128.461 214.661C119.078 201.654 107.689 189.716 95.0793 179.963C94.9386 179.857 95.1263 179.634 95.2553 179.728C108.557 189.845 120.157 202.088 129.353 214.661H128.461Z" fill="#218B85"/>
<path d="M112.498 162.949C112.286 163.266 111.477 164.077 111.231 165.146C110.914 166.168 111.172 167.449 111.196 167.402C111.254 167.426 110.257 166.58 109.941 165.228C109.542 163.924 109.823 162.126 110.328 161.539C111.196 160.188 112.709 160.047 113.014 160.705C113.319 161.351 112.92 162.232 112.498 162.949Z" fill="#218B85"/>
<path d="M108.31 175.04C107.653 174.758 107.759 173.23 109.073 172.337C109.659 171.82 111.442 171.491 112.744 171.879C114.093 172.161 114.961 173.148 114.937 173.089C114.973 173.066 113.706 172.831 112.697 173.171C111.63 173.442 110.832 174.264 110.527 174.487C109.823 174.934 108.955 175.345 108.31 175.04Z" fill="#218B85"/>
<path d="M111.278 180.104C110.621 179.822 110.727 178.295 112.052 177.39C112.638 176.873 114.421 176.556 115.712 176.932C117.072 177.225 117.928 178.212 117.905 178.154C117.952 178.118 116.673 177.895 115.665 178.236C114.609 178.494 113.811 179.329 113.506 179.54C112.803 179.987 111.935 180.398 111.278 180.104Z" fill="#218B85"/>
<path d="M100.674 191.831C100.017 191.549 100.123 190.021 101.448 189.116C102.035 188.599 103.818 188.282 105.108 188.67C106.457 188.952 107.325 189.939 107.301 189.88C107.348 189.857 106.07 189.622 105.061 189.962C104.005 190.221 103.208 191.055 102.891 191.278C102.199 191.713 101.319 192.136 100.674 191.831Z" fill="#218B85"/>
<path d="M95.2553 187.037C94.5985 186.755 94.7041 185.227 96.0295 184.322C96.616 183.805 98.3989 183.488 99.6891 183.864C101.038 184.158 101.906 185.145 101.883 185.086C101.929 185.051 100.651 184.828 99.6422 185.168C98.5865 185.427 97.7889 186.261 97.4722 186.473C96.7802 186.919 95.9122 187.342 95.2553 187.037Z" fill="#218B85"/>
<path d="M116.662 168.671C116.404 168.942 115.465 169.623 115.066 170.645C114.586 171.597 114.644 172.901 114.679 172.866C114.726 172.901 113.87 171.903 113.776 170.516C113.589 169.165 114.14 167.438 114.738 166.932C115.805 165.734 117.33 165.84 117.518 166.533C117.717 167.226 117.189 168.037 116.662 168.671Z" fill="#218B85"/>
<path d="M121.025 174.405C120.661 174.605 119.371 174.957 118.726 175.921C117.999 176.79 117.905 178.259 117.952 178.224C118.022 178.294 117.037 176.802 117.084 175.216C116.99 173.63 117.928 171.949 118.749 171.632C120.286 170.763 122.233 171.538 122.397 172.396C122.585 173.254 121.799 173.923 121.025 174.405Z" fill="#218B85"/>
<path d="M125.635 183.088C125.236 183.229 123.911 183.359 123.113 184.205C122.245 184.921 121.905 186.355 121.963 186.343C122.022 186.414 121.295 184.781 121.6 183.23C121.776 181.655 122.984 180.139 123.852 179.975C125.506 179.375 127.3 180.468 127.312 181.338C127.359 182.219 126.468 182.748 125.635 183.088Z" fill="#218B85"/>
<path d="M112.017 189.14C111.723 189.328 110.703 189.692 110.234 190.514C109.683 191.255 109.694 192.453 109.729 192.43C109.788 192.477 108.908 191.325 108.85 190.033C108.686 188.752 109.354 187.318 109.999 187.025C111.196 186.226 112.838 186.743 113.014 187.424C113.213 188.117 112.615 188.705 112.017 189.14Z" fill="#218B85"/>
<path d="M103.63 165.405C103.231 165.276 103.231 164.359 103.97 163.772C104.299 163.443 105.343 163.172 106.129 163.337C106.938 163.454 107.489 163.995 107.466 163.96C107.501 163.948 106.727 163.866 106.152 164.112C105.53 164.312 105.096 164.841 104.932 164.982C104.533 165.276 104.029 165.558 103.63 165.405Z" fill="#218B85"/>
<path d="M106.574 161.292C106.574 161.515 106.422 162.185 106.645 162.796C106.797 163.407 107.325 163.971 107.325 163.936C107.36 163.936 106.598 163.819 106.011 163.243C105.401 162.726 104.979 161.727 105.038 161.269C105.049 160.317 105.777 159.765 106.129 160C106.492 160.223 106.562 160.799 106.574 161.292Z" fill="#218B85"/>
<path d="M92.2877 182.019C91.8889 181.878 91.8772 180.974 92.6279 180.374C92.9446 180.045 93.9885 179.775 94.7744 179.951C95.5837 180.057 96.135 180.609 96.1233 180.574C96.1467 180.551 95.3843 180.468 94.7979 180.715C94.1879 180.915 93.7539 181.444 93.578 181.596C93.1792 181.878 92.6865 182.172 92.2877 182.019Z" fill="#218B85"/>
<path d="M95.572 177.872C95.5368 178.095 95.3374 178.741 95.5016 179.375C95.6189 179.998 96.0998 180.598 96.0998 180.574C96.135 180.562 95.3843 180.398 94.8447 179.775C94.2817 179.199 93.9416 178.177 94.0354 177.719C94.1292 176.779 94.8916 176.285 95.2201 176.544C95.5602 176.802 95.5954 177.378 95.572 177.872Z" fill="#218B85"/>
<path d="M96.9561 202.312C99.3372 202.523 101.683 202.97 103.982 203.569C108.193 204.673 112.228 206.318 116.216 208.046C118.163 208.903 120.134 209.749 122.057 210.689C122.949 211.124 123.852 211.559 124.685 212.123C125.799 212.875 127.535 214.391 127.746 214.637L126.831 214.661C126.21 214.156 123.911 212.217 120.732 210.678C113.19 207.035 105.366 203.31 96.9561 202.382C96.9092 202.382 96.9209 202.312 96.9561 202.312Z" fill="#218B85"/>
<path d="M211.401 214.661C207.87 199.397 202.228 172.466 205.266 168.8C211.19 161.692 216.081 185.286 216.562 183.276C221.089 164.359 226.415 138.662 241.241 138.662C252.595 138.662 234.977 155.582 235.599 160.846C236.209 166.11 251.774 149.472 259.363 139.038C268.031 127.123 272.699 135.536 268.312 147.639C263.527 160.822 244.783 170.939 248.49 172.372C252.196 173.818 267.351 158.625 270.107 164.77C273.485 172.302 247.07 183.382 250.249 185.074C253.428 186.766 267.175 177.319 269.04 183.676C270.658 189.222 247 192.5 247.363 195.038C247.973 199.139 261.591 189.903 262.225 195.579C262.87 201.383 244.079 200.279 244.408 204.802C244.607 207.411 249.721 205.084 250.331 208.692C250.683 210.713 249.322 212.745 247.094 214.661H211.401Z" fill="#108061"/>
<path d="M233.124 50.807V79.3712V204.52C233.124 204.873 233.104 205.222 233.065 205.566C232.584 210.337 228.807 214.132 224.069 214.614C223.725 214.645 223.381 214.661 223.036 214.661H148.202C148.046 214.661 147.886 214.657 147.721 214.649C147.667 214.649 147.612 214.645 147.557 214.637C147.448 214.637 147.342 214.629 147.24 214.614C147.178 214.614 147.111 214.606 147.041 214.59C146.947 214.582 146.857 214.575 146.771 214.567C146.701 214.551 146.63 214.539 146.56 214.532C146.474 214.516 146.388 214.5 146.302 214.484C146.232 214.469 146.157 214.453 146.079 214.438C146.009 214.422 145.935 214.406 145.856 214.391C145.778 214.367 145.7 214.347 145.622 214.332C145.551 214.308 145.481 214.289 145.411 214.273C145.215 214.21 145.02 214.148 144.824 214.085C144.808 214.077 144.793 214.069 144.777 214.062C140.895 212.652 138.115 208.915 138.115 204.52V175.968V50.807C138.115 50.4623 138.134 50.1177 138.174 49.773C138.619 45.3432 141.903 41.7595 146.173 40.8782C146.337 40.8469 146.501 40.8156 146.666 40.7842C147.002 40.7372 147.342 40.702 147.686 40.6785C147.858 40.6707 148.03 40.6667 148.202 40.6667H223.036C223.193 40.6667 223.353 40.6707 223.517 40.6785C223.572 40.6863 223.627 40.6902 223.682 40.6902C223.791 40.6981 223.897 40.7059 223.998 40.7137C224.061 40.7216 224.127 40.7294 224.198 40.7372C224.292 40.7529 224.381 40.7647 224.467 40.7725C224.538 40.7882 224.608 40.7999 224.679 40.8077C224.765 40.8234 224.851 40.8391 224.937 40.8547C225.007 40.8704 225.081 40.8861 225.16 40.9017C225.23 40.9174 225.304 40.9331 225.382 40.9487C225.461 40.9722 225.539 40.9918 225.617 41.0075C225.687 41.0232 225.758 41.0427 225.828 41.0662C226.039 41.1289 226.246 41.1955 226.45 41.266C226.45 41.266 226.454 41.2699 226.461 41.2777C230.344 42.6877 233.124 46.4242 233.124 50.807Z" fill="#828A90"/>
<path d="M228.526 200.843H143.006V54.4965H228.526V200.843Z" fill="white"/>
<path d="M203.835 49.8905H167.544C167.497 49.8905 167.45 49.8552 167.45 49.7965V48.1515C167.45 48.1045 167.497 48.0575 167.544 48.0575H203.835C203.882 48.0575 203.917 48.1045 203.917 48.1515V49.7965C203.917 49.8552 203.882 49.8905 203.835 49.8905Z" fill="white"/>
<g opacity="0.3">
<path d="M189.76 207.893C189.76 210.219 187.883 212.099 185.572 212.099C183.262 212.099 181.385 210.219 181.385 207.893C181.385 205.566 183.262 203.686 185.572 203.686C187.883 203.686 189.76 205.566 189.76 207.893Z" fill="#42474B"/>
</g>
<g opacity="0.2">
<path d="M228.233 200.843H143.006V194.698H228.233V200.843Z" fill="#5CA7B1"/>
</g>
<g opacity="0.2">
<path d="M228.526 62.2632H143.006V54.4965H228.526V62.2632Z" fill="#3CB4C5"/>
</g>
<path d="M214.673 117.935C214.673 133.927 201.724 146.899 185.76 146.899C169.796 146.899 156.859 133.927 156.859 117.935C156.859 101.943 169.796 88.9828 185.76 88.9828C201.724 88.9828 214.673 101.943 214.673 117.935Z" fill="white"/>
<path d="M199.988 79.383H198.838C195.39 79.383 192.598 76.5865 192.598 73.132V69.231H206.228V73.132C206.228 76.5865 203.436 79.383 199.988 79.383Z" fill="#3D8B96"/>
<path d="M186.358 79.383H185.197C181.76 79.383 178.969 76.5865 178.969 73.132V69.231H192.598V73.132C192.598 76.5865 189.807 79.383 186.358 79.383Z" fill="#E0A143"/>
<path d="M172.729 79.383H171.567C168.119 79.383 165.327 76.5865 165.327 73.132V69.231H178.969V73.132C178.969 76.5865 176.177 79.383 172.729 79.383Z" fill="#3D8B96"/>
<path d="M159.099 79.383H157.938C154.489 79.383 151.698 76.5865 151.698 73.132V69.231H165.327V73.132C165.327 76.5865 162.536 79.383 159.099 79.383Z" fill="#E0A143"/>
<path d="M145.458 79.383H144.296C140.86 79.383 138.068 76.5865 138.068 73.132V69.231H151.698V73.132C151.698 76.5865 148.906 79.383 145.458 79.383Z" fill="#3D8B96"/>
<path d="M240.865 79.383H239.704C236.256 79.383 233.464 76.5865 233.464 73.132V69.231H247.094V73.132C247.094 76.5865 244.302 79.383 240.865 79.383Z" fill="#E0A143"/>
<path d="M227.224 79.383H226.063C222.626 79.383 219.834 76.5865 219.834 73.132V69.231H233.464V73.132C233.464 76.5865 230.672 79.383 227.224 79.383Z" fill="#3D8B96"/>
<path d="M213.629 79.383H212.468C209.02 79.383 206.228 76.5865 206.228 73.132V69.231H219.858V73.132C219.858 76.5865 217.066 79.383 213.629 79.383Z" fill="#E0A143"/>
<path d="M131.828 79.383H130.667C127.23 79.383 124.438 76.5865 124.438 73.132V69.231H138.068V73.132C138.068 76.5865 135.276 79.383 131.828 79.383Z" fill="#E0A143"/>
<path d="M192.598 69.231H178.969L180.939 54.4965H190.628L192.598 69.231Z" fill="#EAAF57"/>
<path d="M178.969 69.231H165.327L171.239 54.4965H180.939L178.969 69.231Z" fill="#5BA7B1"/>
<path d="M165.327 69.231H151.698L161.55 54.4965H171.239L165.327 69.231Z" fill="#EAAF57"/>
<path d="M151.698 69.231H138.068L151.85 54.4965H161.55L151.698 69.231Z" fill="#5BA7B1"/>
<path d="M138.068 69.231H124.438L142.162 54.4965H151.85L138.068 69.231Z" fill="#EAAF57"/>
<path d="M247.094 69.231H233.464L219.635 54.4965H229.335L247.094 69.231Z" fill="#EAAF57"/>
<path d="M233.464 69.231H219.834L209.993 54.4965H219.694L233.464 69.231Z" fill="#5BA7B1"/>
<path d="M219.858 69.231H206.228L200.305 54.4965H209.993L219.858 69.231Z" fill="#EAAF57"/>
<path d="M206.228 69.231H192.598L190.616 54.4965H200.305L206.228 69.231Z" fill="#5BA6B1"/>
<g clip-path="url(#clip0_47_204)">
<path fill-rule="evenodd" clip-rule="evenodd" d="M171.016 116.09C171.016 115.117 171.808 114.328 172.783 114.328H175.431C176.893 114.328 178.078 115.512 178.078 116.971V117.958L200.201 119.559C201.744 119.656 202.876 121.044 202.659 122.572L201.136 133.207C201.044 133.838 200.729 134.415 200.248 134.832C199.767 135.248 199.152 135.478 198.516 135.478H178.078V139.003H195.748C196.443 139.001 197.131 139.137 197.773 139.402C198.415 139.667 198.999 140.056 199.491 140.547C199.983 141.038 200.373 141.621 200.64 142.263C200.907 142.906 201.045 143.594 201.046 144.29C201.046 147.21 198.674 149.578 195.75 149.578C194.905 149.579 194.071 149.377 193.32 148.989C192.568 148.601 191.921 148.038 191.431 147.347C190.942 146.657 190.625 145.859 190.507 145.02C190.389 144.181 190.473 143.327 190.753 142.528H181.309C181.589 143.327 181.673 144.181 181.555 145.02C181.437 145.859 181.12 146.657 180.631 147.347C180.141 148.038 179.494 148.601 178.742 148.989C177.991 149.377 177.157 149.579 176.312 149.578C175.618 149.579 174.93 149.443 174.288 149.178C173.646 148.913 173.063 148.523 172.571 148.032C172.079 147.542 171.689 146.958 171.422 146.316C171.155 145.674 171.017 144.986 171.016 144.29C171.016 141.988 172.491 140.028 174.547 139.302V117.853H172.783C172.551 117.853 172.322 117.808 172.108 117.719C171.894 117.631 171.699 117.501 171.535 117.338C171.371 117.174 171.241 116.98 171.152 116.766C171.063 116.551 171.017 116.322 171.016 116.09ZM178.078 121.49V131.953H197.749L199.028 123.017L178.078 121.49ZM193.984 144.29C193.984 143.317 194.774 142.528 195.748 142.528C196.723 142.528 197.515 143.317 197.515 144.29C197.515 145.263 196.723 146.053 195.748 146.053C195.281 146.053 194.833 145.868 194.502 145.537C194.171 145.207 193.985 144.758 193.984 144.29ZM174.547 144.29C174.547 143.317 175.339 142.528 176.314 142.528C177.288 142.528 178.078 143.317 178.078 144.29C178.078 145.263 177.288 146.053 176.314 146.053C176.082 146.053 175.853 146.008 175.639 145.919C175.425 145.831 175.23 145.701 175.066 145.538C174.902 145.374 174.772 145.18 174.683 144.966C174.594 144.751 174.548 144.522 174.547 144.29Z" fill="#5D5F62"/>
</g>
<defs>
<clipPath id="clip0_47_204">
<rect width="35.1885" height="35.25" fill="white" transform="translate(169.257 114.328)"/>
</clipPath>
</defs>
</svg>
