<?xml version="1.0" standalone="no"?>
<!DOCTYPE svg PUBLIC "-//W3C//DTD SVG 20010904//EN"
 "http://www.w3.org/TR/2001/REC-SVG-20010904/DTD/svg10.dtd">
<svg version="1.0" xmlns="http://www.w3.org/2000/svg"
 width="2000.000000pt" height="1333.000000pt" viewBox="0 0 2000.000000 1333.000000"
 preserveAspectRatio="xMidYMid meet">

<g transform="translate(0.000000,1333.000000) scale(0.100000,-0.100000)"
fill="#000000" stroke="none">
<path d="M3575 10624 c-5 -2 -271 -49 -590 -104 -319 -55 -590 -105 -602 -110
-15 -6 -23 -18 -23 -35 0 -14 -1 -25 -2 -25 -2 0 -165 47 -363 104 -247 71
-365 101 -377 95 -22 -12 -26 -92 -34 -685 l-6 -492 42 -7 c23 -4 194 -35 380
-69 216 -40 345 -60 359 -55 20 8 21 15 21 143 l0 134 -32 -3 c-18 -1 -53 -6
-78 -9 -29 -4 -38 -3 -25 2 22 10 32 8 -320 68 -115 20 -211 37 -212 37 -7 7
-4 77 5 98 190 467 184 450 178 503 l-7 51 218 34 c120 19 226 36 236 39 12 3
17 -2 17 -17 0 -22 19 -33 77 -44 27 -5 32 -3 35 16 4 25 -34 16 506 112 l374
66 286 -101 287 -101 65 20 c36 11 84 25 108 31 40 10 42 13 42 48 0 20 -6 45
-13 54 -13 16 -103 57 -351 159 -107 44 -167 57 -201 43z"/>
<path d="M1196 10587 l-108 -22 -79 -84 -79 -83 -1 -94 c-1 -52 -2 -101 -3
-109 0 -8 1 -16 4 -17 3 -1 99 96 214 215 164 171 203 217 185 216 -13 0 -73
-10 -133 -22z"/>
<path d="M1425 10478 c-44 -46 -130 -135 -190 -198 -60 -63 -156 -163 -212
-222 l-103 -106 0 -111 c0 -61 2 -111 4 -111 2 0 135 137 295 305 l292 304 -3
111 -3 111 -80 -83z"/>
<path d="M7193 10498 l-73 -10 -48 -66 c-27 -37 -113 -154 -191 -260 -78 -107
-141 -195 -139 -196 2 -1 36 1 77 4 l74 5 193 263 c107 144 194 264 194 267 0
3 -3 4 -7 4 -5 -1 -41 -6 -80 -11z"/>
<path d="M6835 10459 c-50 -5 -73 -13 -82 -26 -7 -10 -64 -88 -126 -173 l-114
-155 31 -42 c17 -24 38 -42 45 -40 14 2 331 423 331 440 0 4 -3 6 -7 6 -5 -1
-39 -5 -78 -10z"/>
<path d="M8370 10435 c13 -14 26 -25 28 -25 3 0 -5 11 -18 25 -13 14 -26 25
-28 25 -3 0 5 -11 18 -25z"/>
<path d="M6468 10423 c-70 -5 -74 -13 -61 -130 l8 -78 78 102 c42 56 77 105
77 108 0 3 -10 4 -22 3 -13 -1 -49 -3 -80 -5z"/>
<path d="M7396 10385 c-9 -26 -7 -32 5 -12 6 10 9 21 6 23 -2 3 -7 -2 -11 -11z"/>
<path d="M8425 10390 c3 -5 20 -19 38 -31 l32 -22 -33 32 c-33 31 -49 40 -37
21z"/>
<path d="M7356 10365 c-11 -17 -70 -97 -131 -180 -138 -187 -163 -223 -145
-209 8 6 46 14 85 17 64 5 72 8 95 37 13 18 47 89 75 159 40 101 49 135 45
166 l-5 39 -19 -29z"/>
<path d="M8333 10233 c9 -2 25 -2 35 0 9 3 1 5 -18 5 -19 0 -27 -2 -17 -5z"/>
<path d="M2157 10211 c-54 -9 -100 -14 -104 -11 -3 3 -4 0 -2 -7 2 -6 51 -69
109 -140 l105 -127 12 74 c6 41 14 110 18 153 9 90 21 85 -138 58z"/>
<path d="M8208 10213 c6 -2 18 -2 25 0 6 3 1 5 -13 5 -14 0 -19 -2 -12 -5z"/>
<path d="M7905 10180 c-13 -6 -15 -9 -5 -9 8 0 22 4 30 9 18 12 2 12 -25 0z"/>
<path d="M1946 10097 c-16 -39 -57 -142 -92 -227 -35 -85 -62 -156 -60 -158 4
-3 391 44 434 54 18 3 22 11 22 40 0 31 -17 57 -137 200 -75 90 -136 164 -137
164 -1 0 -14 -33 -30 -73z"/>
<path d="M2366 10134 c-3 -22 -13 -95 -21 -163 -14 -116 -14 -126 2 -143 16
-18 18 -18 30 -2 9 13 13 61 13 168 0 151 -12 218 -24 140z"/>
<path d="M1206 9810 l-296 -309 0 -113 1 -113 87 90 c48 50 183 190 300 313
l212 222 0 110 c0 61 -2 110 -4 110 -3 0 -138 -139 -300 -310z"/>
<path d="M7780 10101 c0 -6 4 -13 10 -16 6 -3 7 1 4 9 -7 18 -14 21 -14 7z"/>
<path d="M6528 10013 c6 -2 18 -2 25 0 6 3 1 5 -13 5 -14 0 -19 -2 -12 -5z"/>
<path d="M6443 10003 c9 -2 25 -2 35 0 9 3 1 5 -18 5 -19 0 -27 -2 -17 -5z"/>
<path d="M6253 9983 c9 -2 23 -2 30 0 6 3 -1 5 -18 5 -16 0 -22 -2 -12 -5z"/>
<path d="M6188 9973 c7 -3 16 -2 19 1 4 3 -2 6 -13 5 -11 0 -14 -3 -6 -6z"/>
<path d="M6088 9963 c6 -2 18 -2 25 0 6 3 1 5 -13 5 -14 0 -19 -2 -12 -5z"/>
<path d="M7165 9918 c-104 -10 -196 -21 -202 -23 -24 -8 -14 -35 12 -35 l25 0
0 -785 0 -785 -2262 0 -2262 0 -54 -26 c-66 -32 -103 -84 -110 -154 -2 -27 20
-268 49 -535 l53 -485 666 0 c426 0 678 -4 702 -10 49 -14 91 -50 111 -97 9
-22 27 -132 41 -263 14 -124 33 -287 42 -363 18 -155 14 -174 -37 -223 l-30
-29 -692 -5 -692 -5 35 -323 c20 -177 34 -324 33 -326 -2 -2 -29 4 -60 12
l-56 16 -26 -30 c-30 -33 -25 9 -66 -559 -54 -728 -52 -715 -74 -715 -10 0
-67 -5 -127 -11 -88 -9 -113 -15 -132 -32 -43 -40 -164 -231 -224 -356 l-61
-124 -96 5 c-174 10 -270 -18 -242 -70 17 -33 89 -86 184 -137 76 -41 88 -51
83 -69 -25 -103 -31 -443 -10 -539 5 -20 33 -47 110 -104 l104 -76 -97 -186
c-53 -102 -141 -271 -196 -376 -55 -104 -136 -260 -180 -345 -44 -85 -84 -159
-88 -164 -5 -6 -9 -28 -9 -51 l0 -41 184 -52 c101 -29 192 -52 202 -52 9 0
247 86 528 191 281 105 604 225 718 267 114 42 208 80 208 83 0 4 -15 12 -32
19 -71 28 -384 184 -524 261 -160 87 -405 236 -548 332 l-88 59 6 127 c11 190
52 510 68 526 2 3 29 -5 58 -16 193 -73 697 -199 940 -235 136 -20 343 -23
383 -6 59 25 44 70 -42 130 -205 142 -670 312 -1213 444 l-37 8 14 38 c42 119
168 379 239 495 l41 69 425 -5 c430 -5 567 -14 900 -57 579 -74 1144 -234
1598 -452 348 -166 698 -391 931 -597 l75 -66 -39 -5 -39 -5 -33 -190 c-18
-104 -32 -204 -31 -221 1 -17 -6 -43 -15 -58 -10 -14 -37 -74 -61 -133 -62
-153 -96 -345 -96 -546 0 -100 15 -276 25 -285 7 -7 183 51 275 92 154 68 238
122 316 203 l70 73 885 -2 884 -3 3 -281 2 -281 -40 -7 c-41 -6 -60 -27 -60
-65 0 -20 5 -21 154 -21 85 0 161 3 170 6 40 15 -9 84 -60 84 l-24 0 0 285 0
285 3260 0 c3180 0 3262 0 3298 19 74 38 106 97 100 187 -3 52 -9 70 -34 101
-38 48 -91 75 -157 79 -29 1 -55 3 -58 3 -4 1 -9 11 -13 24 -9 38 -46 47 -196
47 l-140 0 0 249 c0 222 2 250 16 253 15 3 16 27 16 212 -1 173 -4 212 -17
226 -8 9 -15 26 -15 38 0 11 -5 24 -11 28 -8 4 -9 0 -4 -15 4 -13 2 -21 -5
-21 -8 0 -11 11 -8 31 5 35 -22 60 -87 78 -44 12 -375 15 -375 4 0 -5 74 -7
164 -5 90 2 177 0 195 -5 19 -5 -38 -8 -151 -7 l-183 1 155 -7 155 -6 -173 0
c-154 1 -172 -1 -172 -16 0 -9 6 -18 13 -21 9 -4 9 -7 0 -17 -8 -9 -34 -13
-74 -11 -49 2 -64 -1 -74 -16 -12 -15 -16 -16 -27 -4 -11 12 -11 13 1 6 9 -5
12 -4 7 3 -4 7 -18 12 -32 12 -13 0 -24 4 -24 9 0 5 40 6 89 3 49 -2 96 -2
103 0 18 8 5 228 -16 280 -22 51 -71 105 -120 131 -38 21 -57 22 -271 25
l-231 3 -24 46 c-32 60 -99 109 -240 173 -150 69 -196 100 -203 140 -10 48 10
70 61 70 57 0 197 -47 312 -105 50 -25 96 -43 103 -39 7 4 9 3 4 -1 -6 -7 84
-65 101 -65 3 0 2 46 0 103 -7 131 -55 285 -104 334 -18 18 -29 33 -25 33 3 0
-10 10 -29 22 -60 37 -146 57 -308 73 -184 19 -225 33 -230 82 -2 23 3 37 24
56 32 30 148 70 254 88 41 7 77 14 79 16 12 9 -119 94 -132 86 -6 -3 -7 -1 -4
4 8 13 -92 59 -163 74 -76 16 -219 8 -232 -14 -5 -9 -14 -17 -21 -17 -7 0 -6
4 3 10 12 7 12 10 1 10 -31 0 -156 -77 -212 -131 -33 -33 -61 -59 -64 -59 -2
0 -16 11 -31 25 -14 13 -31 22 -37 18 -5 -3 -7 -1 -4 5 9 13 -90 85 -105 76
-6 -4 -8 -3 -5 3 8 12 -92 57 -163 73 -30 7 -60 14 -67 16 -6 1 -9 12 -6 23 8
29 -6 26 -17 -4 -7 -19 -17 -25 -42 -26 -74 -3 -104 -6 -122 -14 -19 -8 -19
-9 0 -16 13 -5 6 -7 -21 -7 -41 0 -115 -35 -115 -55 0 -5 8 -3 18 5 9 8 24 18
32 22 8 4 2 -4 -15 -18 -19 -17 -33 -22 -41 -16 -7 7 -23 -1 -47 -26 -36 -34
-48 -64 -26 -64 6 0 9 7 6 15 -4 8 -1 17 5 21 7 4 8 3 4 -4 -13 -22 13 -12 28
10 9 12 16 19 16 14 0 -5 8 -2 18 7 9 8 48 31 86 51 74 37 98 36 109 -4 5 -18
3 -19 -11 -8 -14 11 -15 10 -8 -7 12 -30 16 -241 6 -315 -5 -39 -21 -88 -38
-122 -30 -56 -82 -207 -82 -237 0 -32 49 34 55 74 5 30 4 36 -5 25 -19 -27 0
40 33 111 31 68 59 85 65 40 3 -17 8 -20 23 -16 19 6 27 -9 10 -19 -4 -3 -6
-30 -4 -61 3 -42 1 -54 -9 -50 -16 6 -45 -11 -35 -21 3 -4 13 -1 22 6 8 7 15
8 15 2 0 -5 -7 -15 -15 -22 -8 -7 -15 -20 -16 -29 0 -12 -2 -11 -9 4 -9 21
-12 16 -14 -25 -1 -14 3 -28 9 -32 5 -4 6 -10 2 -14 -15 -15 -29 15 -25 54 2
22 -1 38 -5 35 -5 -3 -6 -29 -3 -57 14 -109 17 -168 7 -162 -5 4 -9 -5 -7 -19
3 -29 16 -46 16 -21 0 9 5 14 10 11 6 -4 7 -12 4 -18 -4 -7 -4 -9 0 -5 4 3 23
0 41 -8 42 -17 73 -7 104 33 l23 28 -7 -28 c-5 -18 -3 -27 5 -27 6 0 9 4 6 9
-3 5 2 15 11 22 15 12 16 12 10 -3 -3 -10 -2 -18 3 -18 5 0 8 15 7 34 -1 19
-5 32 -9 29 -5 -2 -8 1 -8 6 0 6 5 11 10 11 6 0 9 3 9 8 -1 4 0 9 1 12 1 3 3
14 5 25 2 11 8 21 14 23 5 2 7 10 4 18 -3 8 0 14 6 14 6 0 11 -7 11 -15 0 -8
4 -15 9 -15 10 0 2 48 -10 55 -4 3 -24 -29 -44 -72 -62 -134 -127 -176 -186
-121 -22 21 -23 28 -17 83 9 80 28 136 78 231 58 110 131 201 169 209 17 3 39
4 50 0 11 -3 22 -2 25 3 3 6 -25 9 -67 9 -39 0 -64 -2 -54 -5 20 -4 13 -22 -9
-22 -8 0 -14 7 -14 15 0 8 -5 15 -11 15 -5 0 -7 -5 -4 -10 4 -6 2 -17 -5 -25
-7 -8 -7 -15 -1 -19 10 -7 4 -36 -8 -36 -11 0 -9 55 2 62 9 6 8 11 -3 18 -10
6 -11 10 -2 10 19 0 14 16 -11 33 -23 15 -60 7 -44 -10 5 -4 12 -1 16 6 6 9
11 5 18 -16 13 -39 9 -93 -8 -103 -7 -5 -10 -12 -6 -17 5 -4 13 -1 18 7 9 12
10 12 5 -3 -3 -10 -6 -21 -6 -23 0 -3 -4 -3 -9 1 -12 7 -34 -31 -37 -64 -5
-40 -11 -34 -11 11 0 28 5 47 16 55 15 11 14 12 -1 13 -19 0 -26 20 -7 20 5 0
7 5 4 10 -3 6 -11 10 -16 10 -6 0 -7 -4 -4 -10 3 -5 0 -10 -8 -10 -15 0 -32
30 -41 72 -4 16 -2 28 4 28 5 0 10 -8 10 -17 0 -10 5 -25 11 -33 9 -12 10 -12
5 4 -9 26 12 48 38 40 20 -6 20 -5 2 8 -17 14 -17 16 13 41 17 14 32 30 32 34
0 4 9 7 19 5 18 -3 25 8 21 31 -1 5 4 7 11 5 7 -3 12 -14 12 -26 -1 -12 2 -20
6 -17 14 8 4 60 -11 57 -23 -6 -39 -23 -32 -35 4 -6 0 -8 -10 -4 -16 6 -87
-62 -87 -84 0 -6 -5 -9 -12 -7 -12 4 -20 88 -8 88 4 0 38 125 46 173 1 4 3 10
4 15 1 4 2 10 1 14 0 4 4 19 9 32 5 14 6 27 2 30 -4 2 -16 -34 -26 -82 -11
-48 -22 -91 -25 -97 -3 -5 -7 -21 -9 -35 -2 -14 -7 -29 -11 -33 -5 -5 -7 40
-6 100 1 59 -1 120 -6 135 -6 23 -4 28 22 37 16 5 29 6 29 1 0 -5 28 -9 63 -9
66 0 111 -13 198 -56 55 -28 150 -93 182 -127 10 -10 22 -16 27 -13 4 3 10 -2
14 -10 7 -19 3 -19 -44 5 -28 14 -59 20 -108 20 -79 0 -184 -26 -161 -41 18
-12 32 -11 24 0 -3 6 10 8 32 5 28 -3 33 -2 18 5 -18 8 -16 9 15 15 19 4 60 6
90 4 l55 -3 -35 -12 -35 -13 48 6 c52 6 91 -2 82 -17 -4 -5 6 -9 20 -9 24 0
25 -2 19 -35 -4 -24 -2 -39 9 -50 23 -22 30 -18 23 12 -3 16 14 -14 39 -66 25
-52 45 -98 45 -104 0 -5 10 -28 21 -51 12 -22 25 -48 30 -58 4 -9 4 -31 -1
-50 -14 -46 -12 -58 5 -58 8 0 15 -6 15 -12 0 -9 4 -8 11 2 9 13 10 12 5 -3
-3 -10 1 -31 9 -47 17 -33 20 -70 5 -70 -5 0 -10 11 -10 25 0 14 -3 25 -8 25
-4 0 -6 -18 -4 -40 4 -34 7 -40 28 -40 30 0 32 -32 4 -60 -15 -15 -16 -20 -6
-20 8 0 17 -6 19 -12 3 -7 6 -2 7 12 1 23 3 21 20 -13 22 -44 40 -167 45 -302
1 -49 3 -98 4 -107 1 -10 9 -18 19 -18 15 0 21 -13 31 -72 27 -161 35 -225 34
-276 -1 -36 3 -52 12 -52 15 0 25 -44 25 -112 0 -28 4 -47 9 -43 16 9 24 -15
22 -62 0 -25 3 -42 8 -39 11 7 32 -49 23 -59 -4 -3 -2 -9 4 -13 6 -4 15 -18
19 -30 6 -21 5 -23 -13 -13 -33 18 -37 13 -8 -10 14 -11 26 -27 26 -35 0 -17
-16 -19 -26 -2 -4 7 -3 8 4 4 7 -4 12 -3 12 3 0 16 -35 30 -61 25 -16 -4 -20
-3 -11 3 9 7 6 12 -13 21 -21 10 -24 17 -19 37 4 15 2 25 -5 25 -6 0 -11 9
-11 20 0 24 -22 26 -40 5 -14 -17 -30 -20 -30 -4 0 6 -14 30 -31 55 -16 24
-28 48 -24 53 3 5 1 12 -5 16 -5 3 -10 0 -11 -7 0 -7 -7 1 -14 17 -17 36 -19
109 -4 137 6 11 13 43 15 72 2 28 5 76 8 106 4 67 20 110 41 110 8 0 15 9 15
20 0 16 -7 20 -30 20 -16 0 -30 4 -30 9 0 4 -20 7 -45 5 -29 -2 -44 0 -40 7 4
6 -3 7 -22 3 -35 -9 -42 -14 -17 -14 31 0 106 -40 101 -53 -3 -8 -22 -11 -58
-8 -30 1 -55 4 -57 6 -8 7 13 35 27 36 12 0 13 2 2 6 -8 3 -20 -2 -28 -13 -24
-33 -16 -44 35 -45 46 -2 46 -2 12 -9 l-35 -8 40 3 c22 1 47 4 55 6 10 3 15
-3 15 -16 0 -12 -8 -21 -20 -22 -11 -2 -14 0 -7 3 26 12 1 19 -49 14 -29 -3
-54 -11 -57 -17 -2 -7 4 -13 13 -13 9 0 14 -4 10 -10 -3 -5 -11 -7 -18 -4 -7
2 -18 -7 -24 -23 -11 -28 -11 -28 -12 10 -1 21 5 45 13 53 8 7 12 23 9 33 -5
19 -6 19 -22 4 -20 -21 -41 -91 -48 -165 -3 -32 -9 -58 -14 -58 -5 0 -9 -8 -9
-17 0 -14 2 -15 9 -5 6 10 10 8 14 -10 10 -35 8 -91 -3 -108 -10 -16 -13 -3
-13 69 1 27 -1 31 -9 17 -5 -9 -7 -23 -5 -30 3 -8 0 -19 -6 -25 -8 -8 -7 -11
3 -11 7 0 11 -2 8 -5 -8 -8 -38 6 -38 17 0 5 5 6 10 3 6 -3 10 -2 10 3 0 6 -7
13 -16 16 -8 3 -12 2 -9 -4 14 -22 -16 -8 -50 24 -22 21 -32 37 -25 41 6 4 19
1 28 -6 16 -12 16 -12 0 6 -14 15 -20 16 -32 6 -12 -10 -18 -7 -33 14 -10 14
-26 35 -35 47 -10 11 -18 28 -19 37 0 9 -11 48 -25 86 l-24 70 5 -54 c2 -30
12 -62 21 -72 9 -10 14 -22 11 -26 -15 -24 130 -176 231 -243 l23 -15 -8 -280
-8 -280 -30 -60 -30 -60 -582 -3 -583 -2 0 81 c0 99 -20 139 -80 163 -22 9
-40 17 -40 18 0 17 -47 464 -74 713 -20 176 -37 372 -38 437 -2 70 -7 116 -13
115 -6 -1 -11 24 -12 55 -1 37 3 57 10 55 6 -1 11 13 13 31 1 17 -2 32 -6 32
-5 0 -11 8 -13 17 -2 10 -3 0 0 -22 2 -21 0 -36 -4 -31 -9 9 -36 190 -59 401
-9 83 -28 261 -43 397 -16 143 -24 253 -19 262 5 8 8 43 8 78 -1 35 -1 92 -2
128 0 65 0 65 -9 21 -14 -70 -19 -72 -12 -4 3 40 2 68 -6 76 -12 15 -16 63 -8
120 3 20 1 37 -3 37 -5 0 -11 -15 -13 -32 -2 -18 -5 17 -6 77 -1 75 -4 105
-11 95 -8 -13 -10 -13 -10 2 0 9 5 20 11 24 7 4 7 9 2 13 -6 3 -13 19 -17 34
-6 26 -5 28 16 22 13 -4 27 -11 33 -16 5 -5 18 -9 30 -9 11 0 27 -5 35 -11 11
-8 8 -9 -15 -5 -22 5 -26 4 -15 -4 12 -8 11 -10 -7 -10 -13 0 -23 -4 -23 -10
0 -5 18 -3 40 5 22 8 42 10 45 5 3 -5 -5 -10 -17 -12 -15 -2 -24 -11 -26 -25
-3 -17 1 -20 17 -16 12 3 21 11 21 18 0 14 27 28 39 21 4 -3 6 -28 4 -56 -2
-34 1 -49 8 -44 6 3 8 12 5 20 -4 11 -1 12 12 6 9 -4 26 -7 37 -7 25 1 47 -14
39 -27 -4 -7 -9 -6 -14 1 -3 7 -7 -2 -7 -19 0 -24 3 -28 9 -16 11 20 34 21 42
1 3 -8 1 -15 -3 -15 -5 0 -11 5 -13 12 -3 8 -7 6 -10 -4 -5 -12 -1 -15 17 -14
18 2 28 -6 45 -36 21 -37 20 -70 0 -38 -8 13 -10 12 -10 -3 0 -10 7 -20 15
-23 8 -4 15 -16 15 -28 0 -12 5 -27 11 -33 8 -8 8 -13 0 -17 -14 -9 -15 -46
-1 -46 5 0 7 7 4 15 -4 8 -1 15 5 15 6 0 11 -6 11 -12 0 -8 14 -13 35 -14 19
0 35 3 35 8 0 5 4 7 9 3 5 -3 20 -1 33 4 13 5 32 12 43 16 16 5 17 8 5 15 -8
6 -10 10 -4 10 5 0 14 -4 20 -9 10 -9 149 -23 140 -13 -4 3 -36 9 -74 12 l-67
7 53 2 c30 0 79 -6 110 -15 59 -17 89 -34 60 -34 -9 0 -20 5 -23 10 -3 6 -16
10 -28 9 -14 0 -4 -7 28 -20 28 -11 74 -39 103 -61 30 -22 56 -37 59 -34 8 8
44 -14 38 -23 -2 -5 2 -14 10 -21 8 -7 15 -17 15 -23 0 -6 -8 0 -17 13 -10 14
-17 28 -16 32 1 3 -4 9 -12 12 -22 8 -18 -5 15 -44 24 -28 32 -32 39 -21 10
15 9 16 -45 79 -20 23 -41 42 -46 42 -6 0 -5 -7 2 -16 12 -13 10 -14 -14 -3
-17 8 -23 16 -17 22 11 11 -2 27 -37 46 -14 7 -22 8 -22 1 0 -5 -4 -10 -10
-10 -5 0 -7 6 -4 14 8 20 -68 48 -148 54 -73 5 -161 -5 -153 -18 3 -4 -2 -11
-11 -14 -24 -9 -31 -7 -14 5 12 9 12 10 -3 5 -10 -3 -23 -6 -28 -6 -6 0 -7 -4
-4 -10 4 -6 -5 -10 -19 -10 -16 0 -26 6 -27 15 -1 8 -3 20 -4 25 -1 6 -3 18
-4 28 -2 15 -4 15 -12 -3 -7 -16 -9 -14 -6 12 2 19 -1 30 -7 26 -5 -4 -7 1 -3
12 5 11 -5 39 -28 79 -38 67 -95 137 -95 118 0 -7 -5 -12 -11 -12 -6 0 -9 7
-6 15 4 8 -6 24 -24 39 -35 30 -141 81 -186 91 -18 4 -33 12 -33 18 0 6 -7 68
-15 137 -29 241 -115 1041 -115 1066 l0 24 300 0 301 0 24 25 c19 18 25 35 25
67 0 72 -51 491 -64 517 -6 13 -24 34 -39 45 -27 20 -42 21 -327 24 l-298 3
-6 37 c-3 20 -13 105 -21 187 -9 83 -23 169 -31 192 -19 51 -79 108 -131 122
-26 8 -530 11 -1600 11 l-1563 0 0 800 0 800 30 0 c28 0 61 33 43 43 -5 2 -93
-5 -198 -15z m105 -828 l0 -800 -125 0 -125 0 0 789 0 789 108 7 c92 5 129 9
140 14 1 0 2 -359 2 -799z m-325 -1228 c-6 -4 -22 -18 -37 -31 l-28 -24 0 31
c0 30 2 32 37 32 20 0 33 -3 28 -8z m145 2 c0 -3 -46 -49 -102 -104 -96 -91
-103 -96 -106 -73 -5 37 139 183 180 183 16 0 28 -2 28 -6z m16 -136 c-82 -79
-155 -144 -162 -146 -6 -2 -15 2 -19 9 -5 7 44 63 126 145 121 121 137 134
169 134 34 0 33 -1 -114 -142z m284 134 c0 -5 -24 -31 -52 -57 -29 -27 -112
-107 -185 -178 -124 -122 -133 -129 -149 -113 -9 10 -13 21 -8 25 5 5 84 81
177 170 125 120 173 161 192 161 14 0 25 -4 25 -8z m-107 -254 c-92 -92 -112
-108 -140 -108 -31 0 -27 5 105 134 126 124 137 133 140 109 3 -22 -15 -45
-105 -135z m2839 -25 c25 -28 199 -277 219 -315 14 -27 -5 -74 -34 -82 -41
-11 -365 -6 -391 5 -36 17 -52 61 -35 102 34 84 141 302 152 309 25 16 64 8
89 -19z m1089 -142 c23 -28 25 -74 3 -95 -13 -14 -62 -16 -384 -16 l-369 0
-20 26 c-27 34 -27 68 -1 94 20 20 30 21 386 18 l366 -3 19 -24z m-4379 -169
c173 -59 290 -189 338 -377 11 -42 52 -351 91 -687 66 -559 72 -619 62 -693
-28 -233 -179 -355 -438 -355 -208 0 -367 80 -467 234 -71 110 -81 161 -158
813 -80 664 -83 746 -41 855 42 108 136 187 264 223 74 21 272 14 349 -13z
m-918 -1004 c22 -178 60 -496 86 -707 l46 -385 77 2 c55 2 79 -2 82 -10 5 -14
35 -257 35 -282 0 -12 -16 -16 -78 -18 l-78 -3 22 -180 c12 -99 19 -183 15
-188 -4 -4 -79 -6 -167 -5 l-159 3 -16 130 c-9 72 -20 156 -24 187 l-6 58
-327 2 -326 3 -18 149 -18 149 201 641 c110 353 210 671 222 709 l21 67 186 0
185 0 39 -322z m2400 280 c3 -24 17 -137 31 -253 86 -714 135 -1108 138 -1112
3 -2 39 -4 81 -4 42 0 76 -3 76 -7 1 -4 9 -71 18 -150 10 -78 16 -145 13 -147
-2 -3 -37 -5 -78 -5 -52 0 -73 -4 -73 -12 0 -7 9 -85 20 -173 11 -88 20 -168
20 -177 0 -16 -14 -18 -164 -18 -162 0 -164 0 -169 23 -3 12 -13 87 -22 167
-9 80 -18 155 -21 168 l-4 22 -325 0 c-253 0 -325 3 -325 13 -1 6 -9 75 -19
151 l-18 139 75 236 c40 130 84 270 97 311 43 140 265 845 270 858 3 9 50 12
189 12 l185 0 5 -42z m2752 -844 c-5 -12 -2 -15 11 -10 14 6 15 4 6 -5 -14
-14 -34 -3 -26 16 3 8 7 15 10 15 3 0 2 -7 -1 -16z m660 -369 c10 -8 15 -14 9
-14 -5 0 -19 6 -29 14 -11 8 -15 15 -10 15 6 0 19 -7 30 -15z m-789 -167 c-2
-13 -4 -3 -4 22 0 25 2 35 4 23 2 -13 2 -33 0 -45z m801 -267 c-7 -11 -16 -17
-21 -14 -4 3 0 11 10 19 24 18 25 17 11 -5z m229 -13 c-3 -8 -6 -5 -6 6 -1 11
2 17 5 13 3 -3 4 -12 1 -19z m10 -220 c-3 -8 -6 -5 -6 6 -1 11 2 17 5 13 3 -3
4 -12 1 -19z m1531 -333 c18 -27 32 -58 30 -69 -6 -44 -88 -28 -133 26 -32 38
-32 61 1 87 35 27 61 16 102 -44z m-1644 -29 c-3 -14 -10 -26 -14 -26 -5 0 -3
13 3 30 13 35 21 33 11 -4z m276 -196 c0 -5 -5 -10 -11 -10 -5 0 -7 5 -4 10 3
6 8 10 11 10 2 0 4 -4 4 -10z m1830 -392 c75 -38 107 -132 84 -246 l-6 -30
-216 -1 c-119 -1 -228 -4 -242 -7 -22 -4 -22 -3 -5 5 11 5 110 11 220 12 l200
3 -200 6 -200 6 218 0 c119 -1 217 2 217 7 0 4 -107 7 -237 7 -131 0 -232 -4
-226 -8 21 -13 -23 -42 -65 -42 -27 0 -33 -3 -22 -10 12 -8 10 -10 -8 -10 -30
0 -24 22 9 31 13 4 17 7 8 8 -9 1 -22 8 -29 16 -10 11 -34 15 -104 14 -50 0
-85 -3 -78 -6 6 -2 10 -9 6 -14 -3 -5 5 -9 18 -9 18 0 20 -2 8 -10 -13 -8 -12
-10 3 -10 10 0 16 -4 12 -9 -3 -5 2 -16 10 -24 8 -9 15 -21 15 -27 0 -6 5 -8
13 -4 8 5 8 3 -2 -9 -16 -21 -25 -16 -41 23 -7 16 -16 30 -21 30 -5 0 -9 5 -9
10 0 12 -41 55 -53 55 -4 0 -36 22 -72 48 -68 51 -79 74 -51 112 23 31 110 15
212 -39 47 -25 90 -43 95 -40 5 3 7 -1 4 -8 -3 -7 11 -23 30 -36 20 -12 33
-27 30 -32 -3 -6 1 -10 9 -10 9 0 16 -4 16 -10 0 -11 30 -14 31 -2 1 10 6 29
29 107 13 44 20 87 17 117 -2 26 -2 50 1 53 3 3 78 5 167 5 147 0 165 -2 205
-22z m-1113 -60 c-2 -13 -4 -5 -4 17 -1 22 1 32 4 23 2 -10 2 -28 0 -40z m-57
-148 c0 -5 -7 -10 -15 -10 -8 0 -15 5 -15 10 0 6 7 10 15 10 8 0 15 -4 15 -10z
m-10 -30 c0 -5 -2 -10 -4 -10 -3 0 -8 5 -11 10 -3 6 -1 10 4 10 6 0 11 -4 11
-10z m659 -19 c20 -13 -24 -24 -70 -18 -28 3 -26 4 16 7 l50 3 -45 7 -45 7 40
1 c22 1 47 -2 54 -7z m1201 -26 c14 -17 20 -75 8 -75 -5 0 -8 14 -8 31 0 20
-4 28 -12 23 -7 -5 -8 -3 -3 6 4 7 2 16 -6 21 -8 5 -9 9 -3 9 6 0 17 -7 24
-15z m-630 -5 c0 -5 -10 -10 -22 -10 -19 0 -20 2 -8 10 19 13 30 13 30 0z
m590 -6 c0 -2 -30 -3 -67 -2 -62 1 -64 2 -23 7 43 6 90 3 90 -5z m-1943 0 c-3
-3 -12 -4 -19 -1 -8 3 -5 6 6 6 11 1 17 -2 13 -5z m716 -1 c-7 -2 -19 -2 -25
0 -7 3 -2 5 12 5 14 0 19 -2 13 -5z m370 0 c-7 -2 -19 -2 -25 0 -7 3 -2 5 12
5 14 0 19 -2 13 -5z m-993 -58 c0 -36 -3 -45 -17 -45 -13 0 -15 2 -5 8 8 6 11
22 8 45 -2 20 0 37 5 37 5 0 9 -20 9 -45z m-156 -37 c7 -5 5 -8 -6 -8 -14 0
-18 8 -17 33 2 27 2 28 6 7 3 -14 10 -28 17 -32z m1596 13 c0 -5 10 -11 23
-13 12 -3 -6 -4 -41 -4 -52 1 -60 3 -45 14 20 14 63 16 63 3z m-197 -325 c105
-45 115 -179 18 -244 l-35 -23 -432 3 c-314 2 -436 6 -445 15 -9 9 4 28 54 80
36 37 86 94 112 126 l47 57 325 0 c252 0 331 -3 356 -14z m-6083 -13 c0 -18
-55 -348 -65 -390 -5 -20 -12 -23 -60 -23 -46 0 -55 3 -55 18 0 17 40 256 61
360 l10 52 55 0 c45 0 54 -3 54 -17z m233 -15 c-4 -18 -20 -114 -37 -213 l-31
-180 -58 -3 c-31 -2 -57 1 -57 5 0 4 16 98 35 208 19 110 35 203 35 208 0 4
27 7 60 7 l60 0 -7 -32z m237 30 c0 -2 -16 -95 -35 -207 -19 -112 -35 -208
-35 -212 0 -5 -27 -9 -61 -9 -58 0 -61 1 -56 23 3 12 20 109 38 215 l33 192
58 0 c32 0 58 -1 58 -2z m-1870 -16 c0 -16 -70 -414 -74 -420 -2 -4 -29 -5
-60 -4 -51 4 -56 6 -51 25 3 12 19 103 35 202 17 99 32 185 34 190 4 12 116
18 116 7z m230 -12 c0 -19 -53 -336 -65 -387 -5 -20 -12 -23 -60 -23 -46 0
-55 3 -55 18 0 17 54 342 65 390 5 19 12 22 60 22 49 0 55 -2 55 -20z m236 3
c-2 -10 -19 -107 -37 -215 l-32 -198 -59 0 c-32 0 -58 3 -58 6 0 4 16 96 35
205 19 110 35 203 35 209 0 6 27 10 61 10 53 0 60 -2 55 -17z m231 -10 c-3
-16 -20 -112 -38 -215 l-33 -188 -51 0 c-28 0 -54 2 -57 5 -4 5 57 383 67 413
3 8 25 12 61 12 56 0 56 0 51 -27z m233 11 c0 -14 -54 -331 -65 -381 -4 -18
-13 -22 -60 -25 -49 -3 -55 -1 -55 16 0 20 58 371 65 394 3 8 24 12 60 12 43
0 55 -3 55 -16z m240 13 c0 -1 -16 -92 -35 -202 -19 -110 -35 -203 -35 -207 0
-5 -27 -8 -60 -8 -33 0 -60 3 -60 8 0 4 16 97 35 207 19 110 35 201 35 203 0
3 120 3 120 -1z m816 -403 c-7 -17 -71 -12 -69 6 5 39 54 319 61 345 4 17 8
-51 10 -155 1 -101 1 -189 -2 -196z m4408 291 c16 -12 17 -15 4 -15 -24 0 -48
11 -48 21 0 13 23 10 44 -6z"/>
<path d="M10052 7567 c-10 -11 -31 -56 -114 -236 -50 -109 -56 -106 172 -106
178 0 195 2 198 18 3 17 -185 299 -216 325 -20 15 -27 15 -40 -1z m62 -84 c3
-21 6 -60 6 -86 0 -44 -2 -48 -22 -45 -18 2 -25 13 -35 53 -6 28 -12 65 -12
83 -1 29 2 32 28 32 25 0 29 -4 35 -37z m21 -203 c0 -34 -50 -42 -60 -11 -9
29 3 43 33 39 21 -2 27 -8 27 -28z"/>
<path d="M6889 7134 c-17 -21 0 -49 31 -49 31 0 48 28 31 49 -8 9 -21 16 -31
16 -10 0 -23 -7 -31 -16z"/>
<path d="M6590 6982 c-42 -20 -70 -72 -70 -127 0 -22 32 -310 71 -640 65 -555
72 -604 97 -655 21 -44 36 -60 72 -77 76 -39 179 -22 212 35 34 59 35 41 -96
1139 -25 209 -38 254 -88 300 -49 45 -135 57 -198 25z"/>
<path d="M5497 5567 c-64 -205 -117 -378 -117 -383 0 -8 319 -8 327 0 4 3 -86
749 -90 753 -2 2 -56 -165 -120 -370z"/>
<path d="M7930 5568 c-62 -200 -115 -370 -117 -378 -3 -13 18 -15 159 -12 89
2 164 5 167 7 5 6 -83 745 -90 745 -3 0 -56 -163 -119 -362z"/>
<path d="M5768 9923 c6 -2 18 -2 25 0 6 3 1 5 -13 5 -14 0 -19 -2 -12 -5z"/>
<path d="M5493 9893 c9 -2 23 -2 30 0 6 3 -1 5 -18 5 -16 0 -22 -2 -12 -5z"/>
<path d="M5418 9883 c6 -2 18 -2 25 0 6 3 1 5 -13 5 -14 0 -19 -2 -12 -5z"/>
<path d="M3900 9836 c0 -2 7 -7 16 -10 8 -3 12 -2 9 4 -6 10 -25 14 -25 6z"/>
<path d="M4993 9833 c9 -2 25 -2 35 0 9 3 1 5 -18 5 -19 0 -27 -2 -17 -5z"/>
<path d="M6930 9836 c0 -2 7 -7 16 -10 8 -3 12 -2 9 4 -6 10 -25 14 -25 6z"/>
<path d="M4918 9823 c7 -3 16 -2 19 1 4 3 -2 6 -13 5 -11 0 -14 -3 -6 -6z"/>
<path d="M4643 9793 c9 -2 23 -2 30 0 6 3 -1 5 -18 5 -16 0 -22 -2 -12 -5z"/>
<path d="M4308 9753 c7 -3 16 -2 19 1 4 3 -2 6 -13 5 -11 0 -14 -3 -6 -6z"/>
<path d="M4148 9733 c6 -2 18 -2 25 0 6 3 1 5 -13 5 -14 0 -19 -2 -12 -5z"/>
<path d="M1480 9662 c-13 -15 -95 -102 -182 -193 -87 -91 -158 -169 -158 -172
0 -5 34 -3 167 9 l62 6 70 77 70 77 2 108 c1 59 -1 109 -3 111 -2 3 -15 -7
-28 -23z"/>
<path d="M2333 9683 c-13 -2 -23 -10 -23 -16 0 -7 -3 -22 -6 -35 -6 -21 -4
-22 35 -20 40 3 41 4 41 41 0 38 -2 39 -47 30z"/>
<path d="M2068 9650 c-71 -9 -130 -19 -133 -22 -3 -2 19 -10 47 -17 142 -31
234 -49 241 -44 4 2 7 26 7 54 0 41 -3 49 -17 48 -10 -1 -75 -9 -145 -19z"/>
<path d="M2398 9523 c7 -3 16 -2 19 1 4 3 -2 6 -13 5 -11 0 -14 -3 -6 -6z"/>
<path d="M3738 8909 c-4 -11 -69 -15 -349 -19 l-344 -5 0 -75 0 -75 530 4
c292 2 533 5 538 8 4 2 7 37 7 78 0 41 -3 76 -7 78 -5 3 -90 8 -189 12 -150 6
-182 5 -186 -6z"/>
<path d="M14248 8603 l-38 -4 0 -255 0 -254 95 0 c135 0 192 14 238 60 61 61
51 158 -19 196 -19 10 -34 21 -34 24 0 3 13 12 29 22 42 23 58 81 38 130 -23
55 -80 80 -187 83 -47 2 -102 1 -122 -2z m187 -93 c22 -18 18 -66 -7 -90 -15
-14 -35 -20 -65 -20 l-43 0 0 58 c0 32 3 62 8 66 10 11 89 1 107 -14z m-6
-205 c33 -17 46 -54 30 -88 -14 -31 -48 -47 -99 -47 l-40 0 0 75 0 75 40 0
c23 0 54 -7 69 -15z"/>
<path d="M14740 8588 c-63 -34 -88 -83 -81 -160 2 -34 57 -82 131 -116 80 -37
90 -45 90 -78 0 -50 -86 -71 -172 -40 l-36 13 -12 -45 c-6 -24 -10 -45 -8 -47
31 -24 165 -33 231 -14 53 14 103 67 111 117 13 81 -24 128 -141 183 -70 32
-83 42 -83 62 0 13 9 32 20 42 19 17 54 18 144 3 16 -2 22 5 29 35 6 26 6 42
-2 50 -6 6 -48 12 -93 15 -73 3 -88 1 -128 -20z"/>
<path d="M13090 8588 c0 -7 27 -121 59 -253 l58 -240 60 -3 61 -3 26 113 c15
62 32 146 39 186 11 69 27 98 27 48 0 -20 31 -194 56 -314 l7 -33 60 3 c58 3
61 4 69 33 17 61 118 462 118 469 0 3 -24 6 -54 6 l-54 0 -12 -52 c-6 -29 -20
-107 -32 -173 -26 -152 -29 -160 -39 -105 -5 25 -20 109 -35 188 l-26 142 -59
0 c-32 0 -60 -3 -63 -8 -2 -4 -19 -81 -36 -172 -18 -91 -35 -173 -39 -183 -4
-12 -20 57 -41 172 l-33 191 -59 0 c-40 0 -58 -4 -58 -12z"/>
<path d="M13800 8345 l0 -255 160 0 160 0 0 49 0 49 -102 0 -103 -1 -3 62 -3
61 96 0 95 0 0 45 0 44 -92 3 -93 3 -3 53 -3 52 100 0 101 0 0 45 0 45 -155 0
-155 0 0 -255z"/>
<path d="M15080 8351 c0 -279 -5 -260 73 -259 l37 0 0 254 0 254 -55 0 -55 0
0 -249z"/>
<path d="M15260 8555 l0 -45 70 0 70 0 0 -210 0 -210 55 0 55 0 0 210 0 210
70 0 70 0 0 45 0 45 -195 0 -195 0 0 -45z"/>
<path d="M15712 8348 l3 -253 160 0 160 0 3 42 3 42 -44 6 c-25 4 -72 5 -106
3 l-61 -3 0 62 0 62 93 3 92 3 3 43 3 42 -95 0 -96 0 0 55 0 55 100 0 100 0 0
45 0 45 -160 0 -160 0 2 -252z"/>
<path d="M3572 8480 c0 -14 2 -19 5 -12 2 6 2 18 0 25 -3 6 -5 1 -5 -13z"/>
<path d="M18116 7795 c-109 -30 -186 -118 -205 -232 -24 -140 25 -254 132
-311 48 -25 61 -27 169 -27 72 0 121 4 128 11 8 8 8 23 0 56 l-12 46 -36 -10
c-51 -14 -136 -4 -176 22 -100 61 -102 251 -3 324 24 18 43 21 125 22 93 0 97
1 103 25 17 58 12 67 -41 78 -65 14 -122 13 -184 -4z"/>
<path d="M13160 7792 c0 -5 -6 -107 -14 -228 -8 -120 -16 -246 -18 -279 l-3
-60 57 -2 56 -3 7 118 c3 64 9 167 13 227 l7 110 23 -95 c12 -52 37 -149 56
-214 35 -127 40 -134 103 -135 31 -1 32 0 58 87 15 48 42 134 60 192 18 58 36
121 41 140 6 25 12 -30 19 -195 l10 -230 54 -3 c30 -2 57 0 61 5 4 4 0 134 -9
288 l-16 280 -84 0 -85 0 -38 -120 c-20 -66 -45 -153 -55 -192 -9 -40 -20 -73
-23 -73 -4 0 -16 43 -28 95 -12 52 -35 139 -52 195 l-32 100 -84 0 c-46 0 -84
-4 -84 -8z"/>
<path d="M13990 7795 c0 -5 -32 -113 -134 -445 -19 -63 -34 -115 -33 -116 3
-3 89 -7 109 -5 16 1 26 23 47 106 l10 40 86 -3 85 -3 21 -69 21 -69 53 -6
c29 -4 59 -3 67 1 12 7 -1 58 -72 289 l-86 280 -87 3 c-48 1 -87 0 -87 -3z
m147 -321 c-4 -5 -117 -7 -121 -3 -3 2 8 54 24 114 16 61 30 112 30 115 1 3
17 -47 35 -110 19 -63 33 -115 32 -116z"/>
<path d="M14420 7515 l0 -285 28 -1 c15 -1 43 -2 62 -2 l35 -1 3 287 2 287
-65 0 -65 0 0 -285z"/>
<path d="M14672 7513 l3 -287 52 -1 53 0 0 210 1 210 36 -70 c68 -134 174
-325 189 -340 9 -9 33 -15 59 -15 80 0 75 -21 75 296 l0 284 -60 0 -61 0 2
-122 c1 -68 5 -158 8 -201 3 -42 4 -77 1 -77 -3 0 -20 33 -38 72 -18 40 -65
130 -105 200 l-72 128 -73 0 -72 0 2 -287z"/>
<path d="M15212 7748 l3 -53 78 -3 77 -3 0 -232 0 -233 63 1 62 0 3 233 2 232
75 0 75 0 0 55 0 55 -221 0 -220 0 3 -52z"/>
<path d="M15730 7511 l0 -290 178 2 177 2 3 53 3 52 -121 0 -121 0 3 68 3 67
108 3 107 3 0 49 0 49 -107 3 -108 3 0 60 0 60 113 3 112 3 0 49 0 50 -175 0
-175 0 0 -289z"/>
<path d="M16187 7793 c-8 -14 -8 -548 0 -558 5 -6 32 -10 61 -10 l53 0 -3 213
c-2 116 -2 212 -1 212 1 0 26 -48 56 -107 74 -145 165 -306 180 -315 14 -9 89
-10 111 -2 14 5 16 40 16 290 l0 284 -62 0 -61 0 6 -207 6 -208 -23 56 c-12
30 -60 124 -106 207 l-84 152 -73 0 c-39 0 -74 -3 -76 -7z"/>
<path d="M16901 7768 c-50 -159 -161 -524 -161 -532 0 -7 25 -11 61 -11 69 0
69 0 89 88 l13 57 87 0 87 0 22 -76 22 -75 64 3 c44 2 65 7 65 16 0 6 -36 128
-80 270 -45 141 -83 265 -86 275 -5 14 -18 17 -89 17 l-83 0 -11 -32z m124
-188 l32 -110 -64 0 c-63 0 -65 1 -59 23 3 12 16 63 28 114 12 51 24 90 27 87
2 -2 19 -54 36 -114z"/>
<path d="M17340 7516 c0 -311 -3 -296 60 -296 57 0 55 -7 52 223 l-2 212 64
-125 c35 -69 86 -165 114 -215 l50 -90 49 -1 c91 -2 83 -28 83 292 l0 284 -56
0 -55 0 3 -200 c2 -110 2 -200 1 -200 -1 0 -24 45 -52 100 -27 55 -75 145
-107 200 l-58 100 -73 0 -73 0 0 -284z"/>
<path d="M18440 7511 l0 -289 180 -2 180 -1 0 56 0 55 -115 0 -115 0 0 70 0
70 105 0 105 0 0 50 0 50 -105 0 -105 0 0 65 0 65 110 0 110 0 0 50 0 50 -175
0 -175 0 0 -289z"/>
<path d="M2047 6886 c-10 -8 -65 -115 -122 -239 -118 -253 -124 -277 -74 -326
l31 -31 284 0 285 0 24 25 c43 42 34 71 -62 212 -162 240 -245 353 -263 363
-26 14 -82 12 -103 -4z m85 -38 c33 -26 318 -451 318 -474 0 -42 -24 -45 -300
-42 -246 3 -260 4 -275 23 -8 11 -13 29 -10 41 8 37 204 447 217 456 18 11 32
10 50 -4z"/>
<path d="M2075 6760 c-10 -16 27 -210 43 -227 8 -8 22 -13 31 -11 13 3 17 19
19 83 1 44 -1 98 -6 120 -7 37 -11 40 -44 43 -20 2 -39 -2 -43 -8z"/>
<path d="M2117 6463 c-12 -12 -7 -60 7 -72 8 -7 27 -11 43 -9 22 2 29 9 31 31
2 16 -2 35 -9 43 -12 14 -60 19 -72 7z"/>
<path d="M13477 5938 c-52 -11 -125 -50 -169 -91 l-37 -34 107 -6 c153 -8 290
-50 483 -148 53 -26 99 -45 103 -42 3 4 6 2 6 -4 0 -6 12 -18 26 -28 78 -51
-105 137 -221 227 -94 73 -209 138 -241 135 -11 0 -36 -5 -57 -9z m474 -305
c13 -16 12 -17 -3 -4 -17 13 -22 21 -14 21 2 0 10 -8 17 -17z"/>
<path d="M10933 5535 c0 -22 2 -30 4 -17 2 12 2 30 0 40 -3 9 -5 -1 -4 -23z"/>
<path d="M10952 5500 c0 -19 2 -27 5 -17 2 9 2 25 0 35 -3 9 -5 1 -5 -18z"/>
<path d="M12302 5510 c-7 -11 -8 -20 -3 -20 9 0 24 30 18 36 -1 2 -8 -6 -15
-16z"/>
<path d="M10980 5470 c0 -11 5 -20 10 -20 6 0 10 9 10 20 0 11 -4 20 -10 20
-5 0 -10 -9 -10 -20z"/>
<path d="M12264 5456 c-14 -15 -34 -52 -34 -62 0 -4 11 10 25 31 26 37 30 54
9 31z"/>
<path d="M11210 5415 c0 -8 4 -15 10 -15 5 0 7 7 4 15 -4 8 -8 15 -10 15 -2 0
-4 -7 -4 -15z"/>
<path d="M11202 5360 c0 -14 2 -19 5 -12 2 6 2 18 0 25 -3 6 -5 1 -5 -13z"/>
<path d="M12191 5334 c-12 -20 -20 -41 -19 -46 2 -5 13 11 26 36 26 55 22 60
-7 10z"/>
<path d="M11210 5325 c-11 -13 -10 -14 4 -9 9 3 16 10 16 15 0 13 -6 11 -20
-6z"/>
<path d="M11124 5304 c-1 -12 5 -25 14 -29 13 -5 13 -3 1 11 -13 16 -11 17 15
10 25 -6 28 -5 17 7 -21 26 -46 26 -47 1z"/>
<path d="M12150 5255 c-7 -9 -10 -18 -7 -21 3 -3 10 4 17 15 13 25 8 27 -10 6z"/>
<path d="M11018 5243 c-35 -5 -37 -23 -3 -23 14 0 25 -5 25 -11 0 -7 -14 -10
-35 -7 -24 3 -35 0 -35 -9 0 -7 8 -13 18 -14 13 0 12 -2 -5 -9 -13 -5 -23 -15
-23 -21 0 -6 15 0 33 13 17 13 44 33 59 44 15 10 28 23 28 29 0 5 -5 4 -12 -3
-17 -17 -31 -15 -24 3 3 8 4 14 3 14 -1 -1 -14 -4 -29 -6z"/>
<path d="M12127 5213 c-4 -3 -7 -13 -7 -22 1 -13 3 -13 11 2 11 19 8 33 -4 20z"/>
<path d="M12102 5141 c-17 -48 -14 -63 4 -22 8 19 13 39 11 45 -2 6 -9 -5 -15
-23z"/>
<path d="M11982 4830 c0 -19 2 -27 5 -17 2 9 2 25 0 35 -3 9 -5 1 -5 -18z"/>
<path d="M12320 4745 c0 -8 9 -15 20 -15 13 0 18 5 14 15 -4 8 -12 15 -20 15
-8 0 -14 -7 -14 -15z"/>
<path d="M11485 4630 c-3 -5 -3 -16 1 -22 4 -7 3 -10 -1 -5 -12 10 -75 -111
-68 -130 4 -10 2 -14 -4 -10 -5 4 -15 -5 -22 -19 -16 -37 -13 -42 9 -14 16 20
19 21 14 5 -4 -11 -4 -17 0 -13 4 3 8 12 10 20 1 7 10 25 20 40 10 15 15 35
12 45 -3 10 -1 25 5 33 8 12 9 9 4 -9 -5 -16 -4 -21 4 -17 6 4 11 16 11 27 0
11 5 17 10 14 6 -4 10 8 10 29 0 37 -4 44 -15 26z"/>
<path d="M12302 4596 c7 -8 15 -12 17 -11 5 6 -10 25 -20 25 -5 0 -4 -6 3 -14z"/>
<path d="M12295 4567 c10 -15 20 -25 23 -22 3 3 -5 16 -17 28 l-23 22 17 -28z"/>
<path d="M12322 4499 c-2 -26 -12 -47 -42 -80 -60 -65 -82 -112 -70 -145 6
-15 13 -24 16 -21 3 3 1 14 -4 24 -5 10 -6 27 -2 39 7 17 15 20 34 17 21 -4
26 -1 26 15 0 11 -6 22 -13 24 -10 2 -9 8 6 23 19 19 20 19 13 1 -6 -16 -4
-17 9 -6 13 11 13 15 3 21 -10 7 -9 9 5 9 9 0 16 3 15 8 0 4 2 14 6 24 4 9 6
31 3 50 l-4 33 -1 -36z"/>
<path d="M11892 4390 c0 -8 3 -26 7 -40 7 -25 7 -25 13 -2 3 12 2 22 -2 22 -5
0 -11 8 -13 18 -3 11 -5 12 -5 2z"/>
<path d="M11058 4333 c7 -3 16 -2 19 1 4 3 -2 6 -13 5 -11 0 -14 -3 -6 -6z"/>
<path d="M12231 4314 c0 -11 3 -14 6 -6 3 7 2 16 -1 19 -3 4 -6 -2 -5 -13z"/>
<path d="M11066 4305 c-3 -8 -1 -15 3 -15 5 0 11 7 15 15 3 8 1 15 -3 15 -5 0
-11 -7 -15 -15z"/>
<path d="M11097 4293 c-9 -8 -8 -73 2 -97 4 -12 7 5 7 42 -1 34 -1 62 -2 62 0
0 -4 -3 -7 -7z"/>
<path d="M11816 4188 c-9 -78 -7 -160 3 -153 5 3 12 -3 15 -12 3 -11 4 -8 3 7
-1 14 -6 28 -12 33 -7 5 -7 10 0 15 6 4 11 22 12 41 1 26 -1 31 -9 20 -7 -10
-8 -7 -4 11 3 14 6 34 6 45 0 17 2 17 10 5 5 -8 10 -10 10 -5 -1 6 -7 18 -14
28 -12 15 -14 11 -20 -35z"/>
<path d="M11412 4193 c-11 -10 -75 -60 -141 -111 -67 -51 -121 -100 -121 -108
0 -8 -9 -22 -20 -31 -25 -22 -26 -53 -2 -52 10 0 12 3 5 6 -7 2 -13 12 -13 20
0 14 3 14 20 -2 11 -10 17 -22 14 -27 -3 -5 0 -16 7 -24 9 -12 9 -20 0 -42
l-13 -27 24 25 c12 14 25 30 28 35 3 5 28 25 55 43 60 41 207 156 248 195 23
22 28 33 23 55 -8 33 -41 62 -71 62 -12 0 -31 -8 -43 -17z m-222 -328 c7 -8 8
-15 2 -15 -5 0 -15 7 -22 15 -7 8 -8 15 -2 15 5 0 15 -7 22 -15z"/>
<path d="M12257 4035 c-26 -18 -20 -28 5 -11 40 28 40 17 1 -21 -21 -20 -42
-36 -46 -35 -5 2 -6 -2 -2 -8 3 -6 -2 -21 -13 -35 l-19 -24 -12 22 -11 22 5
-22 c4 -14 0 -25 -12 -33 -16 -11 -17 -11 0 -6 23 7 22 -5 -3 -32 -11 -12 -23
-35 -27 -52 -4 -21 -9 -28 -16 -21 -7 7 -6 15 2 25 7 9 11 21 8 28 -4 8 -9 3
-13 -12 l-8 -25 -8 25 c-6 19 -7 17 -3 -10 3 -19 12 -41 19 -48 12 -12 16 -9
25 21 27 81 141 229 194 250 l29 12 -39 1 c-22 1 -47 -4 -56 -11z"/>
<path d="M12368 4044 c-4 -3 2 -19 14 -34 19 -26 20 -33 9 -72 -7 -24 -13 -51
-12 -60 0 -10 -4 -18 -8 -18 -23 0 -116 -349 -97 -367 13 -13 27 21 22 55 -3
19 1 50 9 70 7 21 16 59 20 86 5 36 9 46 17 35 7 -10 8 -8 3 9 -8 28 3 29 14
0 l8 -22 5 22 c4 12 3 20 -2 17 -4 -3 -10 6 -12 19 -3 16 0 23 11 22 9 -1 16
8 16 19 5 80 5 80 15 65 5 -8 7 -23 4 -34 -4 -12 -2 -16 5 -12 6 4 11 17 11
30 0 12 6 28 12 34 10 10 10 15 -1 21 -10 7 -11 13 -2 30 9 16 9 21 -1 21 -9
0 -9 3 2 10 17 10 13 17 -15 22 -11 1 -25 11 -31 21 -5 10 -13 15 -16 11z"/>
<path d="M11826 3967 c3 -10 9 -15 12 -12 3 3 0 11 -7 18 -10 9 -11 8 -5 -6z"/>
<path d="M12184 3950 c0 -13 4 -16 10 -10 7 7 7 13 0 20 -6 6 -10 3 -10 -10z"/>
<path d="M11856 3891 c-4 -7 -5 -15 -2 -18 9 -9 19 4 14 18 -4 11 -6 11 -12 0z"/>
<path d="M11095 3831 c3 -35 5 -78 5 -95 1 -22 3 -27 9 -16 16 28 24 63 13 56
-7 -4 -13 12 -17 41 -10 77 -15 83 -10 14z"/>
<path d="M12802 3870 c0 -14 2 -19 5 -12 2 6 2 18 0 25 -3 6 -5 1 -5 -13z"/>
<path d="M12121 3864 c0 -11 3 -14 6 -6 3 7 2 16 -1 19 -3 4 -6 -2 -5 -13z"/>
<path d="M11897 3750 c3 -14 14 -37 25 -52 10 -14 18 -31 18 -37 0 -6 5 -11
10 -11 6 0 10 -6 10 -14 0 -8 19 -38 42 -68 l42 -53 16 71 c9 39 24 89 33 112
9 22 13 44 8 47 -5 3 -15 -17 -22 -45 -9 -37 -18 -50 -31 -50 -13 0 -18 -8
-19 -27 -1 -34 -17 -79 -18 -50 -1 9 -5 17 -11 17 -5 0 -10 7 -10 15 0 8 -4
15 -10 15 -5 0 -10 6 -10 14 0 7 -11 30 -25 50 -20 29 -22 36 -8 36 9 0 22 -8
29 -17 12 -16 13 -14 13 17 0 19 -3 29 -6 23 -8 -21 -49 -15 -66 10 l-16 22 6
-25z m158 -137 c-8 -33 -13 -55 -14 -66 -1 -5 -5 -6 -9 -3 -11 6 9 96 21 96 5
0 6 -12 2 -27z"/>
<path d="M11995 3710 c3 -5 8 -10 11 -10 2 0 4 5 4 10 0 6 -5 10 -11 10 -5 0
-7 -4 -4 -10z"/>
<path d="M11997 3632 c1 -8 3 -16 3 -18 0 -2 5 -4 10 -4 6 0 10 10 10 23 0 16
-3 18 -9 8 -5 -7 -11 -9 -13 -5 -3 5 -3 3 -1 -4z"/>
<path d="M12876 3442 c-4 -13 -5 -26 -2 -29 10 -11 18 4 14 29 l-4 23 -8 -23z"/>
<path d="M12385 3320 c-3 -5 -2 -18 4 -27 7 -14 9 -12 8 10 -2 30 -3 31 -12
17z"/>
<path d="M12340 3313 c0 -5 14 -24 31 -43 l31 -35 -23 43 c-20 38 -39 54 -39
35z"/>
<path d="M12790 3264 c0 -14 4 -23 10 -19 6 3 10 15 10 26 0 10 -4 19 -10 19
-5 0 -10 -12 -10 -26z"/>
<path d="M11280 3240 c-28 -28 -26 -74 4 -98 22 -17 41 -19 200 -17 155 1 177
3 196 20 24 22 26 62 4 93 -15 21 -20 22 -200 22 -171 0 -185 -1 -204 -20z"/>
<path d="M12450 3246 c0 -2 8 -10 18 -17 15 -13 16 -12 3 4 -13 16 -21 21 -21
13z"/>
<path d="M4895 3223 c-194 -26 -389 -167 -474 -345 -91 -188 -89 -395 4 -578
39 -76 129 -174 207 -227 200 -133 444 -144 663 -30 34 18 92 64 136 107 277
275 242 723 -74 957 -129 95 -298 138 -462 116z m268 -217 c168 -81 267 -230
267 -400 0 -39 -6 -87 -14 -106 -22 -59 -45 -106 -46 -92 0 7 -20 -6 -44 -30
-25 -25 -41 -49 -39 -58 4 -11 3 -12 -4 -2 -8 10 -25 5 -79 -20 -65 -31 -75
-33 -179 -33 -122 1 -178 16 -271 74 -28 17 -56 31 -63 31 -6 0 -11 11 -11 25
0 14 -4 25 -9 25 -15 0 -58 74 -81 140 -29 85 -29 184 1 243 50 97 136 173
243 214 52 20 76 23 166 20 91 -3 113 -7 163 -31z m-604 -403 c-1 -38 -1 -38
-9 -9 -8 27 -6 46 6 46 2 0 4 -17 3 -37z m24 -90 c-6 -14 -8 -14 -14 3 -5 11
-8 13 -8 5 -1 -8 -3 -12 -6 -9 -3 3 -3 13 1 22 5 12 10 14 20 6 7 -7 10 -19 7
-27z m26 -117 c-3 -3 -11 5 -18 17 -13 21 -12 21 5 5 10 -10 16 -20 13 -22z
m30 -51 c-7 -7 -8 -4 -3 8 4 12 2 16 -7 14 -8 -2 -11 -2 -6 0 4 3 7 14 8 26 1
17 3 16 10 -8 5 -19 5 -33 -2 -40z m131 -41 c0 -13 -27 -1 -38 16 -12 20 -12
21 13 4 14 -9 25 -18 25 -20z m-100 6 c0 -5 -2 -10 -4 -10 -3 0 -8 5 -11 10
-3 6 -1 10 4 10 6 0 11 -4 11 -10z m88 -52 c-6 -18 -25 -21 -25 -3 0 8 7 15
15 15 7 0 12 -5 10 -12z m462 -18 c0 -11 -7 -14 -54 -25 -25 -5 -27 -4 -14 8
12 13 33 22 61 26 4 0 7 -4 7 -9z m-140 -10 c0 -5 -15 -10 -32 -10 -25 0 -29
3 -18 10 20 13 50 13 50 0z m-30 -40 c-8 -5 -28 -9 -45 -9 -30 2 -30 2 5 9 51
11 57 11 40 0z m90 0 c0 -5 -4 -10 -10 -10 -5 0 -10 5 -10 10 0 6 5 10 10 10
6 0 10 -4 10 -10z m-192 -27 c-10 -2 -26 -2 -35 0 -10 3 -2 5 17 5 19 0 27 -2
18 -5z"/>
<path d="M5730 2215 l0 -855 -25 0 c-31 0 -78 -44 -73 -68 3 -15 20 -17 168
-17 165 0 165 0 168 23 5 32 -14 51 -59 58 l-39 7 0 624 0 624 30 172 c17 95
33 182 35 195 5 20 1 22 -30 22 -33 0 -35 2 -35 35 l0 35 -70 0 -70 0 0 -855z"/>
<path d="M6019 2790 l-36 -210 58 0 c55 0 58 1 63 28 8 41 66 379 66 386 0 3
-26 6 -58 6 l-57 0 -36 -210z"/>
</g>
</svg>
